# xmcd
#
# Track frame offsets:
#	150
#	14994
#	27137
#	36756
#	48985
#	66787
#	82255
#	94076
#	114848
#	131776
#	149289
#	164572
#	179738
#	194700
#	213190
#	228836
#	244874
#	260365
#	277784
#
# Disc length: 3988 seconds
#
# Revision: 0
# Processed by: cddbd v1.5.1PL2 Copyright (c) Steve Scherf et al.
# Submitted via: dBpowerAMP V4.0
#
DISCID=170f9213
DTITLE=Various Artist - Various
DYEAR=1900
DGENRE=Cabaret
TTITLE0=Jiri Suchy - Klementajn
TTITLE1=Yvetta Simonova - Romeo
TTITLE2=Milan Chladil - Na mou Veru
TTITLE3=Eva Pilarova - U nas doma
TTITLE4=Waldemar Matuska - Po starych zameckych schodech
TTITLE5=Pani v cernem
TTITLE6=Helena Bleharova - S-S-S
TTITLE7=Karel Gott - Hej, pani konsele
TTITLE8=Hana Zagorova - Tisic novych jmen
TTITLE9=Karel Cernoch - Pisen o me zemi
TTITLE10=Petr Spaleny - Josefina
TTITLE11=Jiri Korn - Neplakej
TTITLE12=Petr Rezek - Jsi
TTITLE13=Vera Spinarova - Meteor lasky
TTITLE14=Karel Zich - Parada
TTITLE15=Michal David - Poupata
TTITLE16=Josef Laufer - Sbohem, lasko, ja jedu dal
TTITLE17=Marcela Holanova - Zarlim
TTITLE18=Marie Rottrova - Ten vitr val
EXTD=
EXTT0=
EXTT1=
EXTT2=
EXTT3=
EXTT4=
EXTT5=
EXTT6=
EXTT7=
EXTT8=
EXTT9=
EXTT10=
EXTT11=
EXTT12=
EXTT13=
EXTT14=
EXTT15=
EXTT16=
EXTT17=
EXTT18=
PLAYORDER=
